#!OML:ASF F:\VICON\USERDATA\INSTALL\rory3\rory3.ASF
:FULLY-SPECIFIED
:DEGREES
1385
root -1.21783 17.6878 -2.91093 5.24971 -47.193 6.96102
lowerback 15.9874 0.583801 -1.07769
upperback 3.07815 0.710006 3.22183
thorax -5.73528 0.350831 3.89581
lowerneck -22.8813 5.58538 -4.77918
upperneck 17.0035 9.89786 -3.1041
head 9.03525 3.92727 1.0874
rclavicle 7.23576e-014 5.56597e-014
rhumerus -13.3545 -11.227 -68.7161
rradius 111.47
rwrist -25.4852
rhand -15.7297 24.4123
rfingers 7.12502
rthumb 10.4609 -5.30741
lclavicle 7.23576e-014 5.56597e-014
lhumerus 15.7517 5.57987 71.5243
lradius 112.773
lwrist -0.431787
lhand -17.259 8.74537
lfingers 7.12502
lthumb 8.9854 38.534
rfemur -34.0722 4.55765 -0.53086
rtibia 50.6869
rfoot -7.44474 4.44296
rtoes -8.65298
lfemur -30.1937 13.9076 -22.6628
ltibia 68.0105
lfoot 0.278016 -14.1376
ltoes -24.83
1386
root -1.2451 17.6748 -2.85628 4.8821 -47.9127 7.48828
lowerback 16.3052 0.412175 -1.63654
upperback 3.22026 0.394618 3.43714
thorax -5.73681 0.202716 4.51597
lowerneck -23.1348 5.98809 -5.56824
upperneck 16.713 10.6916 -3.06762
head 8.92695 4.26098 1.3274
rclavicle -6.59965e-014 -1.11319e-014
rhumerus -13.1525 -11.1172 -68.3037
rradius 109.881
rwrist -27.1107
rhand -14.3526 24.1327
rfingers 7.12502
rthumb 11.7891 -5.51549
lclavicle -6.59965e-014 -1.11319e-014
lhumerus 16.1427 7.51652 70.3782
lradius 113.093
lwrist -0.713707
lhand -17.4464 8.67708
lfingers 7.12502
lthumb 8.80454 38.4734
rfemur -34.2487 4.53229 -0.753455
rtibia 52.0889
rfoot -8.26948 3.08862
rtoes -15.6813
lfemur -31.9934 15.1788 -23.1468
ltibia 67.7849
lfoot -0.977056 -13.7699
ltoes -23.7104
1387
root -1.2767 17.6497 -2.80957 4.49812 -48.3094 8.02101
lowerback 16.6572 0.223436 -2.16968
upperback 3.28655 0.0572108 3.57474
thorax -5.82583 0.046469 5.0483
lowerneck -23.0786 6.342 -6.19961
upperneck 16.3401 11.3348 -3.03216
head 8.74191 4.54863 1.50602
rclavicle -9.14409e-014 1.59028e-015
rhumerus -13.4379 -11.2238 -67.926
rradius 108.31
rwrist -28.7841
rhand -12.9215 23.9519
rfingers 7.12502
rthumb 13.1689 -5.6122
lclavicle -9.14409e-014 1.59028e-015
lhumerus 16.623 9.16901 69.1861
lradius 113.502
lwrist -1.01331
lhand -17.4388 8.83525
lfingers 7.12502
lthumb 8.81197 38.6313
rfemur -34.1558 4.65788 -1.14101
rtibia 53.3488
rfoot -8.39755 2.81341
rtoes -18.8497
lfemur -33.784 16.0663 -23.5296
ltibia 67.2895
lfoot -1.82623 -13.5367
ltoes -22.236
1388
root -1.3138 17.6035 -2.77135 4.22857 -48.3773 8.33643
lowerback 17.1464 0.476977 -2.11624
upperback 3.59897 0.357568 3.16265
thorax -5.7842 0.180763 4.51055
lowerneck -24.4686 6.20492 -5.3564
upperneck 16.6142 11.0186 -3.09628
head 9.1269 4.40146 1.37418
rclavicle -5.32743e-014 4.92986e-014
rhumerus -14.4223 -13.64 -67.937
rradius 106.983
rwrist -30.2779
rhand -11.8187 23.6438
rfingers 7.12502
rthumb 14.2317 -5.84856
lclavicle -5.32743e-014 4.92986e-014
lhumerus 18.9425 9.108 68.0163
lradius 113.686
lwrist -1.07842
lhand -17.2834 9.19898
lfingers 7.12502
lthumb 8.96192 38.9886
rfemur -33.5936 5.11387 -1.61968
rtibia 54.3131
rfoot -8.30781 3.16722
rtoes -13.8223
lfemur -35.5145 16.6998 -23.6609
ltibia 66.6105
lfoot -2.75841 -13.4505
ltoes -22.2764
1389
root -1.35933 17.5436 -2.73223 4.24899 -48.4051 8.40938
lowerback 17.4586 0.0439911 -2.72462
upperback 3.21877 -0.281492 3.62233
thorax -6.29333 -0.0968215 5.51509
lowerneck -22.9519 6.69636 -6.15514
upperneck 16.0044 11.7996 -3.19796
head 8.61022 4.77286 1.49078
rclavicle 4.6118e-014 2.54444e-014
rhumerus -15.9681 -12.8089 -67.219
rradius 105.54
rwrist -31.7253
rhand -10.7106 23.3914
rfingers 7.12502
rthumb 15.2993 -6.02271
lclavicle 4.6118e-014 2.54444e-014
lhumerus 18.1394 11.0975 67.0658
lradius 114.187
lwrist -1.33221
lhand -17.2644 8.80477
lfingers 7.12502
lthumb 8.98021 38.5936
rfemur -32.9716 5.65451 -1.90903
rtibia 54.8368
rfoot -7.78542 3.17725
rtoes -11.3964
lfemur -37.33 17.367 -23.6128
ltibia 65.7487
lfoot -3.7092 -13.5053
ltoes -21.9727
1390
root -1.41018 17.4689 -2.68321 4.3925 -48.2206 8.37963
lowerback 17.5573 0.064263 -2.62074
upperback 3.27367 -0.248706 3.46878
thorax -6.29284 -0.085278 5.28165
lowerneck -23.3264 6.69624 -5.60708
upperneck 16.0122 11.6924 -3.36749
head 8.72064 4.72748 1.35496
rclavicle 8.74653e-015 2.54444e-014
rhumerus -18.0011 -14.4485 -66.8157
rradius 104.039
rwrist -32.7599
rhand -9.41885 23.292
rfingers 7.12502
rthumb 16.5432 -6.02278
lclavicle 8.74653e-015 2.54444e-014
lhumerus 19.1924 11.4098 66.1794
lradius 114.351
lwrist -1.3669
lhand -17.1314 7.95549
lfingers 7.12502
lthumb 9.1086 37.7388
rfemur -32.1363 6.0193 -2.05094
rtibia 54.8396
rfoot -6.94374 3.45039
rtoes -11.1261
lfemur -39.1012 17.6574 -23.4531
ltibia 64.6924
lfoot -4.59122 -13.2045
ltoes -21.1427
1391
root -1.46163 17.3806 -2.62303 4.53564 -47.5284 8.25565
lowerback 17.6771 -0.2372 -2.23713
upperback 3.24943 -0.578003 3.40746
thorax -6.35224 -0.251315 5.07149
lowerneck -23.403 6.77787 -5.48232
upperneck 15.9802 11.7655 -3.36231
head 8.72765 4.77057 1.34994
rclavicle 6.36111e-015 -2.70347e-014
rhumerus -20.3285 -15.7576 -66.3566
rradius 102.239
rwrist -33.7839
rhand -8.17509 23.2971
rfingers 7.12502
rthumb 17.7404 -5.91361
lclavicle 6.36111e-015 -2.70347e-014
lhumerus 19.8184 11.9581 65.3066
lradius 114.707
lwrist -1.09714
lhand -16.9227 7.55112
lfingers 7.12502
lthumb 9.30993 37.3256
rfemur -30.7645 6.07505 -2.0697
rtibia 54.3649
rfoot -7.10318 4.62437
rtoes -11.0852
lfemur -40.6947 17.2687 -23.131
ltibia 63.3886
lfoot -5.61921 -12.336
ltoes -22.2556
1392
root -1.51956 17.2852 -2.56128 4.91763 -46.7829 7.82253
lowerback 17.854 -0.473523 -2.0662
upperback 3.13339 -0.833228 3.71053
thorax -6.54428 -0.369661 5.36984
lowerneck -23.341 6.81145 -5.69465
upperneck 15.9056 11.8959 -3.49005
head 8.68804 4.80861 1.35202
rclavicle -6.12257e-014 7.95139e-015
rhumerus -22.8751 -16.8488 -65.3961
rradius 100.185
rwrist -34.6556
rhand -6.95133 23.4457
rfingers 7.12502
rthumb 18.9176 -5.65434
lclavicle -6.12257e-014 7.95139e-015
lhumerus 20.1603 12.5479 64.9945
lradius 115.2
lwrist -0.718258
lhand -16.8434 7.60034
lfingers 7.12502
lthumb 9.38644 37.3713
rfemur -29.2073 6.22263 -1.81307
rtibia 53.5605
rfoot -9.12734 6.19812
rtoes -11.2971
lfemur -42.2316 16.8098 -22.5149
ltibia 61.7944
lfoot -6.40757 -11.4681
ltoes -24.2284
1393
root -1.58342 17.1781 -2.49977 5.32621 -46.0563 7.42441
lowerback 17.8722 -0.712594 -1.83079
upperback 3.08228 -1.09012 3.8673
thorax -6.58312 -0.496194 5.46593
lowerneck -23.4455 6.81819 -5.77138
upperneck 15.8042 11.9289 -3.48753
head 8.66565 4.82318 1.36936
rclavicle -7.95139e-016 6.36111e-015
rhumerus -25.5698 -18.0486 -64.547
rradius 97.929
rwrist -35.2967
rhand -5.72995 23.3883
rfingers 7.12502
rthumb 20.0919 -5.59284
lclavicle -7.95139e-016 6.36111e-015
lhumerus 20.6575 13.1158 64.5412
lradius 115.722
lwrist -0.294187
lhand -16.6936 7.70535
lfingers 7.12502
lthumb 9.53095 37.4698
rfemur -27.7576 6.39136 -1.52088
rtibia 52.7073
rfoot -12.0385 7.32321
rtoes -10.5315
lfemur -43.7451 16.3442 -21.8874
ltibia 59.8917
lfoot -6.65197 -10.5509
ltoes -24.1872
1394
root -1.64203 17.0631 -2.42959 5.57034 -45.1302 7.08759
lowerback 18.0727 -1.04622 -1.44745
upperback 3.01234 -1.44249 4.00966
thorax -6.73542 -0.669519 5.49202
lowerneck -23.597 6.80735 -6.02166
upperneck 15.7952 11.9711 -3.32122
head 8.66045 4.8448 1.47149
rclavicle -9.06458e-014 7.95139e-015
rhumerus -28.4466 -19.149 -63.5387
rradius 95.4327
rwrist -36.1355
rhand -4.36838 23.0712
rfingers 7.12502
rthumb 21.4002 -5.76692
lclavicle -9.06458e-014 7.95139e-015
lhumerus 20.9278 13.7159 64.1347
lradius 116.387
lwrist -0.109393
lhand -16.6092 7.80946
lfingers 7.12502
lthumb 9.61237 37.5702
rfemur -26.2655 6.24496 -1.14925
rtibia 52.0444
rfoot -14.966 7.66904
rtoes -13.0458
lfemur -44.9566 15.474 -21.1546
ltibia 57.6718
lfoot -6.29605 -9.28083
ltoes -22.6429
1395
root -1.70149 16.9524 -2.36004 6.40143 -44.7101 6.43999
lowerback 18.0022 -1.19988 -1.05452
upperback 2.76995 -1.54448 4.21769
thorax -6.95362 -0.715813 5.52235
lowerneck -23.6704 6.81146 -6.27654
upperneck 15.7575 12.0436 -3.2345
head 8.63757 4.8741 1.54824
rclavicle 1.39149e-013 -5.56597e-014
rhumerus -31.5529 -20.15 -62.3923
rradius 92.6106
rwrist -37.2939
rhand -3.22921 22.8074
rfingers 7.12502
rthumb 22.494 -5.90245
lclavicle 1.39149e-013 -5.56597e-014
lhumerus 20.8872 14.2593 63.7449
lradius 117.136
lwrist -0.286713
lhand -16.8121 8.14294
lfingers 7.12502
lthumb 9.41667 37.9126
rfemur -25.6611 6.0165 -0.523656
rtibia 51.7415
rfoot -17.3445 8.0257
rtoes -14.6898
lfemur -46.3514 14.8851 -20.1145
ltibia 55.1955
lfoot -5.19686 -7.9435
ltoes -19.0888
